<mxfile host="app.diagrams.net" agent="Mozilla/5.0 (Windows NT 10.0; Win64; x64) AppleWebKit/537.36 (KHTML, like Gecko) Chrome/138.0.0.0 Safari/537.36 Edg/138.0.0.0" version="27.2.0">
  <diagram name="第 1 页" id="n3uA6LhMcJ3tTR3SE0A3">
    <mxGraphModel dx="1668" dy="889" grid="1" gridSize="10" guides="1" tooltips="1" connect="1" arrows="1" fold="1" page="1" pageScale="1" pageWidth="827" pageHeight="1169" math="0" shadow="0">
      <root>
        <mxCell id="0" />
        <mxCell id="1" parent="0" />
        <mxCell id="GQ0-UOU12cNr4RYPbYsO-16" style="edgeStyle=orthogonalEdgeStyle;rounded=0;orthogonalLoop=1;jettySize=auto;html=1;exitX=1;exitY=0.5;exitDx=0;exitDy=0;entryX=0;entryY=0.5;entryDx=0;entryDy=0;" edge="1" parent="1" source="GQ0-UOU12cNr4RYPbYsO-2" target="GQ0-UOU12cNr4RYPbYsO-15">
          <mxGeometry relative="1" as="geometry" />
        </mxCell>
        <mxCell id="GQ0-UOU12cNr4RYPbYsO-2" value="付款明细创建&lt;br&gt;（状态待审核）" style="rounded=1;whiteSpace=wrap;html=1;" vertex="1" parent="1">
          <mxGeometry x="301" y="120" width="80" height="40" as="geometry" />
        </mxCell>
        <mxCell id="GQ0-UOU12cNr4RYPbYsO-10" style="edgeStyle=orthogonalEdgeStyle;rounded=0;orthogonalLoop=1;jettySize=auto;html=1;exitX=1;exitY=0.5;exitDx=0;exitDy=0;entryX=0;entryY=0.5;entryDx=0;entryDy=0;" edge="1" parent="1" source="GQ0-UOU12cNr4RYPbYsO-3" target="GQ0-UOU12cNr4RYPbYsO-7">
          <mxGeometry relative="1" as="geometry" />
        </mxCell>
        <mxCell id="GQ0-UOU12cNr4RYPbYsO-3" value="商户上传付款文件" style="rounded=1;whiteSpace=wrap;html=1;" vertex="1" parent="1">
          <mxGeometry x="40" y="80" width="70" height="40" as="geometry" />
        </mxCell>
        <mxCell id="GQ0-UOU12cNr4RYPbYsO-5" value="商户&lt;br&gt;单笔付款" style="rounded=1;whiteSpace=wrap;html=1;" vertex="1" parent="1">
          <mxGeometry x="40" y="160" width="70" height="40" as="geometry" />
        </mxCell>
        <mxCell id="GQ0-UOU12cNr4RYPbYsO-12" style="edgeStyle=orthogonalEdgeStyle;rounded=0;orthogonalLoop=1;jettySize=auto;html=1;exitX=1;exitY=0.5;exitDx=0;exitDy=0;entryX=0;entryY=0.5;entryDx=0;entryDy=0;" edge="1" parent="1" source="GQ0-UOU12cNr4RYPbYsO-7" target="GQ0-UOU12cNr4RYPbYsO-2">
          <mxGeometry relative="1" as="geometry">
            <Array as="points">
              <mxPoint x="260" y="100" />
              <mxPoint x="260" y="140" />
            </Array>
          </mxGeometry>
        </mxCell>
        <mxCell id="GQ0-UOU12cNr4RYPbYsO-7" value="生成批量付款订单" style="rounded=1;whiteSpace=wrap;html=1;" vertex="1" parent="1">
          <mxGeometry x="160" y="80" width="70" height="40" as="geometry" />
        </mxCell>
        <mxCell id="GQ0-UOU12cNr4RYPbYsO-13" style="edgeStyle=orthogonalEdgeStyle;rounded=0;orthogonalLoop=1;jettySize=auto;html=1;exitX=1;exitY=0.5;exitDx=0;exitDy=0;entryX=0;entryY=0.5;entryDx=0;entryDy=0;" edge="1" parent="1" source="GQ0-UOU12cNr4RYPbYsO-5" target="GQ0-UOU12cNr4RYPbYsO-2">
          <mxGeometry relative="1" as="geometry">
            <mxPoint x="110" y="160" as="sourcePoint" />
            <mxPoint x="301" y="140" as="targetPoint" />
            <Array as="points">
              <mxPoint x="260" y="180" />
              <mxPoint x="260" y="140" />
            </Array>
          </mxGeometry>
        </mxCell>
        <mxCell id="GQ0-UOU12cNr4RYPbYsO-32" style="edgeStyle=orthogonalEdgeStyle;rounded=0;orthogonalLoop=1;jettySize=auto;html=1;exitX=1;exitY=0.5;exitDx=0;exitDy=0;entryX=0;entryY=0.5;entryDx=0;entryDy=0;" edge="1" parent="1" source="GQ0-UOU12cNr4RYPbYsO-15" target="GQ0-UOU12cNr4RYPbYsO-30">
          <mxGeometry relative="1" as="geometry" />
        </mxCell>
        <mxCell id="GQ0-UOU12cNr4RYPbYsO-15" value="付款订单审核&lt;br&gt;（状态处理中）" style="rounded=1;whiteSpace=wrap;html=1;" vertex="1" parent="1">
          <mxGeometry x="440" y="120" width="80" height="40" as="geometry" />
        </mxCell>
        <mxCell id="GQ0-UOU12cNr4RYPbYsO-22" style="edgeStyle=orthogonalEdgeStyle;rounded=0;orthogonalLoop=1;jettySize=auto;html=1;exitX=1;exitY=0.5;exitDx=0;exitDy=0;" edge="1" parent="1" source="GQ0-UOU12cNr4RYPbYsO-18">
          <mxGeometry relative="1" as="geometry">
            <mxPoint x="300" y="254" as="targetPoint" />
          </mxGeometry>
        </mxCell>
        <mxCell id="GQ0-UOU12cNr4RYPbYsO-18" value="发起提现" style="rounded=1;whiteSpace=wrap;html=1;" vertex="1" parent="1">
          <mxGeometry x="40" y="234" width="70" height="40" as="geometry" />
        </mxCell>
        <mxCell id="GQ0-UOU12cNr4RYPbYsO-23" style="edgeStyle=orthogonalEdgeStyle;rounded=0;orthogonalLoop=1;jettySize=auto;html=1;exitX=1;exitY=0.5;exitDx=0;exitDy=0;entryX=0;entryY=0.5;entryDx=0;entryDy=0;" edge="1" parent="1" source="GQ0-UOU12cNr4RYPbYsO-20" target="GQ0-UOU12cNr4RYPbYsO-21">
          <mxGeometry relative="1" as="geometry" />
        </mxCell>
        <mxCell id="GQ0-UOU12cNr4RYPbYsO-20" value="提现订单创建&lt;br&gt;（状态待审核）" style="rounded=1;whiteSpace=wrap;html=1;" vertex="1" parent="1">
          <mxGeometry x="301" y="234" width="80" height="40" as="geometry" />
        </mxCell>
        <mxCell id="GQ0-UOU12cNr4RYPbYsO-33" style="edgeStyle=orthogonalEdgeStyle;rounded=0;orthogonalLoop=1;jettySize=auto;html=1;exitX=1;exitY=0.5;exitDx=0;exitDy=0;" edge="1" parent="1" source="GQ0-UOU12cNr4RYPbYsO-21">
          <mxGeometry relative="1" as="geometry">
            <mxPoint x="600" y="240" as="targetPoint" />
          </mxGeometry>
        </mxCell>
        <mxCell id="GQ0-UOU12cNr4RYPbYsO-21" value="提现订单审核&lt;br&gt;（状态处理中）" style="rounded=1;whiteSpace=wrap;html=1;" vertex="1" parent="1">
          <mxGeometry x="440" y="234" width="80" height="40" as="geometry" />
        </mxCell>
        <mxCell id="GQ0-UOU12cNr4RYPbYsO-27" style="edgeStyle=orthogonalEdgeStyle;rounded=0;orthogonalLoop=1;jettySize=auto;html=1;exitX=1;exitY=0.5;exitDx=0;exitDy=0;" edge="1" parent="1" source="GQ0-UOU12cNr4RYPbYsO-24">
          <mxGeometry relative="1" as="geometry">
            <mxPoint x="300" y="334" as="targetPoint" />
          </mxGeometry>
        </mxCell>
        <mxCell id="GQ0-UOU12cNr4RYPbYsO-24" value="结算定时任务" style="rounded=1;whiteSpace=wrap;html=1;" vertex="1" parent="1">
          <mxGeometry x="40" y="314" width="70" height="40" as="geometry" />
        </mxCell>
        <mxCell id="GQ0-UOU12cNr4RYPbYsO-28" style="edgeStyle=orthogonalEdgeStyle;rounded=0;orthogonalLoop=1;jettySize=auto;html=1;exitX=1;exitY=0.5;exitDx=0;exitDy=0;entryX=0;entryY=0.5;entryDx=0;entryDy=0;" edge="1" parent="1" source="GQ0-UOU12cNr4RYPbYsO-25" target="GQ0-UOU12cNr4RYPbYsO-26">
          <mxGeometry relative="1" as="geometry" />
        </mxCell>
        <mxCell id="GQ0-UOU12cNr4RYPbYsO-25" value="结算单生成&lt;br&gt;（状态待审核）" style="rounded=1;whiteSpace=wrap;html=1;" vertex="1" parent="1">
          <mxGeometry x="301" y="314" width="80" height="40" as="geometry" />
        </mxCell>
        <mxCell id="GQ0-UOU12cNr4RYPbYsO-34" style="edgeStyle=orthogonalEdgeStyle;rounded=0;orthogonalLoop=1;jettySize=auto;html=1;exitX=1;exitY=0.5;exitDx=0;exitDy=0;entryX=0;entryY=0.5;entryDx=0;entryDy=0;" edge="1" parent="1" source="GQ0-UOU12cNr4RYPbYsO-26" target="GQ0-UOU12cNr4RYPbYsO-30">
          <mxGeometry relative="1" as="geometry">
            <mxPoint x="600" y="240" as="targetPoint" />
          </mxGeometry>
        </mxCell>
        <mxCell id="GQ0-UOU12cNr4RYPbYsO-26" value="结算单审核&lt;br&gt;（状态处理中）" style="rounded=1;whiteSpace=wrap;html=1;" vertex="1" parent="1">
          <mxGeometry x="440" y="314" width="80" height="40" as="geometry" />
        </mxCell>
        <mxCell id="GQ0-UOU12cNr4RYPbYsO-35" style="edgeStyle=orthogonalEdgeStyle;rounded=0;orthogonalLoop=1;jettySize=auto;html=1;exitX=1;exitY=0.5;exitDx=0;exitDy=0;entryX=0;entryY=0.5;entryDx=0;entryDy=0;" edge="1" parent="1" source="GQ0-UOU12cNr4RYPbYsO-30" target="GQ0-UOU12cNr4RYPbYsO-31">
          <mxGeometry relative="1" as="geometry" />
        </mxCell>
        <mxCell id="GQ0-UOU12cNr4RYPbYsO-30" value="出款流水生成&lt;br&gt;（状态待审核）" style="rounded=1;whiteSpace=wrap;html=1;" vertex="1" parent="1">
          <mxGeometry x="600" y="220" width="80" height="40" as="geometry" />
        </mxCell>
        <mxCell id="GQ0-UOU12cNr4RYPbYsO-40" style="edgeStyle=orthogonalEdgeStyle;rounded=0;orthogonalLoop=1;jettySize=auto;html=1;exitX=1;exitY=0.5;exitDx=0;exitDy=0;entryX=0;entryY=0.5;entryDx=0;entryDy=0;" edge="1" parent="1" source="GQ0-UOU12cNr4RYPbYsO-31" target="GQ0-UOU12cNr4RYPbYsO-37">
          <mxGeometry relative="1" as="geometry" />
        </mxCell>
        <mxCell id="GQ0-UOU12cNr4RYPbYsO-31" value="出款流水审核&lt;br&gt;（状态处理中）" style="rounded=1;whiteSpace=wrap;html=1;" vertex="1" parent="1">
          <mxGeometry x="740" y="220" width="80" height="40" as="geometry" />
        </mxCell>
        <mxCell id="GQ0-UOU12cNr4RYPbYsO-41" style="edgeStyle=orthogonalEdgeStyle;rounded=0;orthogonalLoop=1;jettySize=auto;html=1;exitX=1;exitY=0.5;exitDx=0;exitDy=0;entryX=0;entryY=0.5;entryDx=0;entryDy=0;" edge="1" parent="1" source="GQ0-UOU12cNr4RYPbYsO-37" target="GQ0-UOU12cNr4RYPbYsO-38">
          <mxGeometry relative="1" as="geometry" />
        </mxCell>
        <mxCell id="GQ0-UOU12cNr4RYPbYsO-37" value="创建渠道付款流水" style="rounded=1;whiteSpace=wrap;html=1;" vertex="1" parent="1">
          <mxGeometry x="890" y="220" width="80" height="40" as="geometry" />
        </mxCell>
        <mxCell id="GQ0-UOU12cNr4RYPbYsO-42" style="edgeStyle=orthogonalEdgeStyle;rounded=0;orthogonalLoop=1;jettySize=auto;html=1;exitX=1;exitY=0.5;exitDx=0;exitDy=0;entryX=0;entryY=0.5;entryDx=0;entryDy=0;" edge="1" parent="1" source="GQ0-UOU12cNr4RYPbYsO-38" target="GQ0-UOU12cNr4RYPbYsO-39">
          <mxGeometry relative="1" as="geometry" />
        </mxCell>
        <mxCell id="GQ0-UOU12cNr4RYPbYsO-38" value="调用银网联" style="rounded=1;whiteSpace=wrap;html=1;" vertex="1" parent="1">
          <mxGeometry x="1040" y="220" width="80" height="40" as="geometry" />
        </mxCell>
        <mxCell id="GQ0-UOU12cNr4RYPbYsO-39" value="完成付款" style="rounded=1;whiteSpace=wrap;html=1;" vertex="1" parent="1">
          <mxGeometry x="1178" y="220" width="80" height="40" as="geometry" />
        </mxCell>
        <mxCell id="GQ0-UOU12cNr4RYPbYsO-46" style="edgeStyle=orthogonalEdgeStyle;rounded=0;orthogonalLoop=1;jettySize=auto;html=1;exitX=1;exitY=0.5;exitDx=0;exitDy=0;entryX=0;entryY=0.5;entryDx=0;entryDy=0;" edge="1" parent="1" source="GQ0-UOU12cNr4RYPbYsO-43" target="GQ0-UOU12cNr4RYPbYsO-45">
          <mxGeometry relative="1" as="geometry" />
        </mxCell>
        <mxCell id="GQ0-UOU12cNr4RYPbYsO-43" value="出款流水状态补偿定时任务" style="rounded=1;whiteSpace=wrap;html=1;" vertex="1" parent="1">
          <mxGeometry x="246" y="430" width="90" height="40" as="geometry" />
        </mxCell>
        <mxCell id="GQ0-UOU12cNr4RYPbYsO-50" style="edgeStyle=orthogonalEdgeStyle;rounded=0;orthogonalLoop=1;jettySize=auto;html=1;exitX=1;exitY=0.5;exitDx=0;exitDy=0;entryX=0;entryY=0.5;entryDx=0;entryDy=0;" edge="1" parent="1" source="GQ0-UOU12cNr4RYPbYsO-45" target="GQ0-UOU12cNr4RYPbYsO-49">
          <mxGeometry relative="1" as="geometry" />
        </mxCell>
        <mxCell id="GQ0-UOU12cNr4RYPbYsO-45" value="查询5分钟前状态为处理中的出款流水" style="rounded=1;whiteSpace=wrap;html=1;" vertex="1" parent="1">
          <mxGeometry x="396" y="430" width="120" height="40" as="geometry" />
        </mxCell>
        <mxCell id="GQ0-UOU12cNr4RYPbYsO-52" style="edgeStyle=orthogonalEdgeStyle;rounded=0;orthogonalLoop=1;jettySize=auto;html=1;exitX=1;exitY=0.5;exitDx=0;exitDy=0;" edge="1" parent="1" source="GQ0-UOU12cNr4RYPbYsO-49">
          <mxGeometry relative="1" as="geometry">
            <mxPoint x="755" y="450" as="targetPoint" />
          </mxGeometry>
        </mxCell>
        <mxCell id="GQ0-UOU12cNr4RYPbYsO-49" value="查询对应渠道付款流水的处理结果" style="rounded=1;whiteSpace=wrap;html=1;" vertex="1" parent="1">
          <mxGeometry x="586" y="430" width="110" height="40" as="geometry" />
        </mxCell>
        <mxCell id="GQ0-UOU12cNr4RYPbYsO-62" style="edgeStyle=orthogonalEdgeStyle;rounded=0;orthogonalLoop=1;jettySize=auto;html=1;entryX=0;entryY=0.5;entryDx=0;entryDy=0;" edge="1" parent="1" source="GQ0-UOU12cNr4RYPbYsO-51" target="GQ0-UOU12cNr4RYPbYsO-58">
          <mxGeometry relative="1" as="geometry" />
        </mxCell>
        <mxCell id="GQ0-UOU12cNr4RYPbYsO-64" value="否" style="edgeLabel;html=1;align=center;verticalAlign=middle;resizable=0;points=[];" vertex="1" connectable="0" parent="GQ0-UOU12cNr4RYPbYsO-62">
          <mxGeometry x="-0.1695" y="-2" relative="1" as="geometry">
            <mxPoint as="offset" />
          </mxGeometry>
        </mxCell>
        <mxCell id="GQ0-UOU12cNr4RYPbYsO-63" style="edgeStyle=orthogonalEdgeStyle;rounded=0;orthogonalLoop=1;jettySize=auto;html=1;exitX=0.5;exitY=1;exitDx=0;exitDy=0;entryX=0.5;entryY=0;entryDx=0;entryDy=0;" edge="1" parent="1" source="GQ0-UOU12cNr4RYPbYsO-51" target="GQ0-UOU12cNr4RYPbYsO-55">
          <mxGeometry relative="1" as="geometry" />
        </mxCell>
        <mxCell id="GQ0-UOU12cNr4RYPbYsO-65" value="是" style="edgeLabel;html=1;align=center;verticalAlign=middle;resizable=0;points=[];" vertex="1" connectable="0" parent="GQ0-UOU12cNr4RYPbYsO-63">
          <mxGeometry x="-0.3333" y="1" relative="1" as="geometry">
            <mxPoint as="offset" />
          </mxGeometry>
        </mxCell>
        <mxCell id="GQ0-UOU12cNr4RYPbYsO-51" value="&lt;div&gt;&lt;br&gt;&lt;/div&gt;查询到渠道付款流水" style="rhombus;whiteSpace=wrap;html=1;" vertex="1" parent="1">
          <mxGeometry x="756" y="410" width="80" height="80" as="geometry" />
        </mxCell>
        <mxCell id="GQ0-UOU12cNr4RYPbYsO-55" value="更新出款流水状态" style="rounded=1;whiteSpace=wrap;html=1;" vertex="1" parent="1">
          <mxGeometry x="756" y="530" width="80" height="40" as="geometry" />
        </mxCell>
        <mxCell id="GQ0-UOU12cNr4RYPbYsO-57" style="edgeStyle=orthogonalEdgeStyle;rounded=0;orthogonalLoop=1;jettySize=auto;html=1;exitX=1;exitY=0.5;exitDx=0;exitDy=0;entryX=0;entryY=0.5;entryDx=0;entryDy=0;" edge="1" source="GQ0-UOU12cNr4RYPbYsO-58" target="GQ0-UOU12cNr4RYPbYsO-60" parent="1">
          <mxGeometry relative="1" as="geometry" />
        </mxCell>
        <mxCell id="GQ0-UOU12cNr4RYPbYsO-58" value="创建渠道付款流水" style="rounded=1;whiteSpace=wrap;html=1;" vertex="1" parent="1">
          <mxGeometry x="895" y="430" width="80" height="40" as="geometry" />
        </mxCell>
        <mxCell id="GQ0-UOU12cNr4RYPbYsO-59" style="edgeStyle=orthogonalEdgeStyle;rounded=0;orthogonalLoop=1;jettySize=auto;html=1;exitX=1;exitY=0.5;exitDx=0;exitDy=0;entryX=0;entryY=0.5;entryDx=0;entryDy=0;" edge="1" source="GQ0-UOU12cNr4RYPbYsO-60" target="GQ0-UOU12cNr4RYPbYsO-61" parent="1">
          <mxGeometry relative="1" as="geometry" />
        </mxCell>
        <mxCell id="GQ0-UOU12cNr4RYPbYsO-60" value="调用银网联" style="rounded=1;whiteSpace=wrap;html=1;" vertex="1" parent="1">
          <mxGeometry x="1045" y="430" width="80" height="40" as="geometry" />
        </mxCell>
        <mxCell id="GQ0-UOU12cNr4RYPbYsO-61" value="完成付款" style="rounded=1;whiteSpace=wrap;html=1;" vertex="1" parent="1">
          <mxGeometry x="1183" y="430" width="80" height="40" as="geometry" />
        </mxCell>
      </root>
    </mxGraphModel>
  </diagram>
</mxfile>
